<?xml version="1.0" standalone="no"?>
<!DOCTYPE svg PUBLIC "-//W3C//DTD SVG 20010904//EN"
 "http://www.w3.org/TR/2001/REC-SVG-20010904/DTD/svg10.dtd">
<svg version="1.0" xmlns="http://www.w3.org/2000/svg"
 width="78.000000pt" height="78.000000pt" viewBox="0 0 78.000000 78.000000"
 preserveAspectRatio="xMidYMid meet">

<g transform="translate(0.000000,78.000000) scale(0.100000,-0.100000)"
fill="#000000" stroke="none">
<path d="M0 390 l0 -390 390 0 390 0 0 390 0 390 -390 0 -390 0 0 -390z m325
316 c18 -8 61 -43 94 -77 58 -60 62 -62 86 -49 24 13 28 10 124 -91 l99 -104
-56 -80 c-74 -108 -89 -123 -188 -190 l-85 -59 -101 101 c-93 93 -99 102 -87
121 12 19 8 27 -53 90 -72 74 -94 125 -85 195 15 114 145 188 252 143z"/>
<path d="M223 653 c-33 -6 -81 -59 -88 -97 -9 -44 10 -83 72 -150 l52 -56 40
57 c21 32 59 71 84 88 l45 30 -30 38 c-57 71 -116 102 -175 90z"/>
<path d="M392 397 c-12 -13 -22 -35 -22 -49 0 -25 27 -58 47 -58 6 0 21 -16
33 -35 12 -19 25 -35 29 -35 11 0 81 75 81 86 0 6 -12 17 -26 24 -14 8 -32 27
-40 42 -26 51 -68 61 -102 25z"/>
</g>
</svg>
